##     ## #### ##     ## ########          ######  ##     ##  #######  
##     ##  ##  ##     ## ##               ##    ## ###   ### ##     ## 
##     ##  ##  ##     ## ##               ##       #### #### ##     ## 
#########  ##  ##     ## ######   ####### ##       ## ### ##  #######  
##     ##  ##   ##   ##  ##               ##       ##     ## ##     ## 
##     ##  ##    ## ##   ##               ##    ## ##     ## ##     ## 
##     ## ####    ###    ########          ######  ##     ##  #######  

###########  Thx Hive - CM8 Doing It Right The First Time  ###########


[IMG]http://img694.imageshack.us/img694/4896/seegirl.jpg[/IMG]


See.Girl.Run.2012.HDRip.XVID.AC3.HQ.Hive-CM8


Source: 1080p Web-DL

Video.: 720x304 @bitrate 1500 2pass
Audio.: English AC3 5.1 @384
Subs..: Yes, English in srt/subs
Sample: Yes, included


IMDb..: http://www.imdb.com/title/tt1954811/


ENCODE
got this brand new funny comedy
and video had great quality
added sharpness and denoise
got very nice
enjoy


General
Complete name                  : See.Girl.Run.2012.HDRip.XVID.AC3.HQ.Hive-CM8.avi
Format                         : AVI
Format/Info                    : Audio Video Interleave
File size                      : 1.18 GiB
Duration                       : 1h 29mn
Overall bit rate               : 1 893 Kbps
Writing application            : Nandub v1.0rc2
Writing library                : Nandub build 1853/release

Video
ID                             : 0
Format                         : MPEG-4 Visual
Format profile                 : Advanced Simple@L5
Format settings, BVOP          : 2
Format settings, QPel          : Yes
Format settings, GMC           : No warppoints
Format settings, Matrix        : Default (H.263)
Muxing mode                    : Packed bitstream
Codec ID                       : XVID
Codec ID/Hint                  : XviD
Duration                       : 1h 29mn
Bit rate                       : 1 500 Kbps
Width                          : 720 pixels
Height                         : 304 pixels
Display aspect ratio           : 2.35:1
Frame rate                     : 23.976 fps
Color space                    : YUV
Chroma subsampling             : 4:2:0
Bit depth                      : 8 bits
Scan type                      : Progressive
Compression mode               : Lossy
Bits/(Pixel*Frame)             : 0.286
Stream size                    : 959 MiB (79%)
Writing library                : XviD 1.2.1 (UTC 2008-12-04)

Audio
ID                             : 1
Format                         : AC-3
Format/Info                    : Audio Coding 3
Mode extension                 : CM (complete main)
Format settings, Endianness    : Big
Codec ID                       : 2000
Duration                       : 1h 29mn
Bit rate mode                  : Constant
Bit rate                       : 384 Kbps
Channel(s)                     : 6 channels
Channel positions              : Front: L C R, Side: L R, LFE
Sampling rate                  : 48.0 KHz
Bit depth                      : 16 bits
Compression mode               : Lossy
Stream size                    : 246 MiB (20%)
Alignment                      : Split accross interleaves
Interleave, duration           : 42 ms (1.00 video frame)
Interleave, preload duration   : 500 ms


PLOT
A young woman decides to revisit her past relationships
in order to find some guidance in her current life.


CAST
Robin Tunney     ...     Emmie
Adam Scott       ...     Jason
Jeremy Strong    ...     Brandon
William Sadler   ...     Marty


[img]http://img836.imageshack.us/img836/5577/20156041.png[/img]
[img]http://img823.imageshack.us/img823/3329/sgsgp.png[/img]
[img]http://img9.imageshack.us/img9/7971/sgsgsgn.png[/img]
[img]http://img802.imageshack.us/img802/4897/sgsgssgg.png[/img]
[img]http://img267.imageshack.us/img267/2743/sgsgssggsg.png[/img]
[img]http://img213.imageshack.us/img213/9638/sgsgssggsgsg.png[/img]
[img]http://img254.imageshack.us/img254/3186/sgsgssggssggsg.png[/img]




GREETZ
ViSiON,SPK,SceneLovers,PRESTiGE,SANTi,3LT0N,YanKeeS,COPYxRIGHT,THC,T0XiC
D2U,LKRG,ADTRG,Feel-Free,KoDeKinG,FLAWL3SS,WBZ,BHRG,26K,NOVA,MAGNET
Unevano,BigVik,Rapeseed,SAFC,goldadvance,KaN1vE,Pinnz,Wayne,TED
SeeN,jtr,Limey,ICONiK,4PlayHD,THEDEN-RG,eXceSs,AKS74u,HiGH
Mr Hive,trepario,stallone,and most P2P groups
Great Work Guys!

LOOKING FOR ANYTHING YOU WANT TO LOOK AND SOUND BETTER

CM8@hushmail.com
